<svg width="512" height="82" viewBox="0 0 512 82" fill="none" xmlns="http://www.w3.org/2000/svg">
<rect x="0.5" y="0.5" width="511" height="81" rx="11.5" stroke="#7A3E4A"/>
<path d="M66.08 51.336C62.456 51.336 60.056 48.168 60.056 42.048C60.056 35.904 62.456 32.904 66.08 32.904C69.704 32.904 72.08 35.928 72.08 42.048C72.08 48.168 69.704 51.336 66.08 51.336ZM66.08 48.576C67.616 48.576 68.744 47.04 68.744 42.048C68.744 37.08 67.616 35.64 66.08 35.64C64.544 35.64 63.392 37.08 63.392 42.048C63.392 47.04 64.544 48.576 66.08 48.576ZM81.6288 51.336C78.8208 51.336 76.9248 50.28 75.6768 48.864L77.3328 46.632C78.3888 47.664 79.6848 48.456 81.2928 48.456C83.0928 48.456 84.3168 47.568 84.3168 45.96C84.3168 44.232 83.2848 43.128 79.4208 43.128V40.608C82.6848 40.608 83.7408 39.48 83.7408 37.896C83.7408 36.504 82.8768 35.688 81.3648 35.688C80.0928 35.688 79.0608 36.264 78.0048 37.248L76.2048 35.088C77.7408 33.744 79.4448 32.904 81.5328 32.904C84.9648 32.904 87.2928 34.608 87.2928 37.632C87.2928 39.552 86.2128 40.944 84.3408 41.688V41.808C86.3328 42.36 87.8688 43.848 87.8688 46.176C87.8688 49.44 85.0128 51.336 81.6288 51.336ZM92.2816 45.384V42.864H98.8336V45.384H92.2816ZM109.3 42.312C108.34 42.312 107.212 42.84 106.396 44.184C106.732 47.424 107.932 48.672 109.42 48.672C110.74 48.672 111.844 47.568 111.844 45.384C111.844 43.296 110.836 42.312 109.3 42.312ZM109.492 51.336C106.108 51.336 103.108 48.624 103.108 42.36C103.108 35.736 106.396 32.904 109.972 32.904C112.156 32.904 113.716 33.816 114.796 34.92L112.924 37.032C112.3 36.312 111.22 35.736 110.188 35.736C108.148 35.736 106.468 37.272 106.324 41.736C107.284 40.536 108.82 39.816 109.972 39.816C112.948 39.816 115.06 41.592 115.06 45.384C115.06 49.032 112.516 51.336 109.492 51.336ZM121.897 43.704H126.049V40.08C126.049 39.048 126.121 37.44 126.169 36.384H126.073C125.641 37.344 125.161 38.328 124.657 39.288L121.897 43.704ZM126.049 51V46.392H118.465V43.992L125.089 33.216H129.337V43.704H131.425V46.392H129.337V51H126.049ZM135.046 51V48.96C139.87 44.64 142.726 41.304 142.726 38.568C142.726 36.768 141.766 35.688 140.062 35.688C138.766 35.688 137.71 36.528 136.798 37.512L134.878 35.592C136.51 33.84 138.094 32.904 140.518 32.904C143.878 32.904 146.11 35.064 146.11 38.376C146.11 41.592 143.446 45.048 140.206 48.216C141.094 48.12 142.27 48.024 143.11 48.024H146.95V51H135.046ZM154.531 51C154.843 44.832 155.875 40.896 159.259 36.192H151.267V33.216H163.075V35.376C158.947 40.416 158.395 44.04 158.107 51H154.531ZM167.296 45.384V42.864H173.848V45.384H167.296ZM183.547 51.336C180.739 51.336 178.867 50.232 177.547 48.912L179.179 46.656C180.187 47.64 181.435 48.456 183.091 48.456C184.939 48.456 186.235 47.28 186.235 45.192C186.235 43.128 185.035 41.976 183.235 41.976C182.179 41.976 181.603 42.24 180.571 42.912L178.963 41.856L179.443 33.216H188.947V36.192H182.491L182.155 39.96C182.875 39.624 183.475 39.456 184.291 39.456C187.267 39.456 189.763 41.232 189.763 45.096C189.763 49.056 186.835 51.336 183.547 51.336ZM194.943 51V48.144H198.759V36.912H195.543V34.728C197.319 34.392 198.543 33.936 199.671 33.216H202.287V48.144H205.623V51H194.943ZM210.996 51V48.144H214.812V36.912H211.596V34.728C213.372 34.392 214.596 33.936 215.724 33.216H218.34V48.144H221.676V51H210.996ZM231.705 51.336C228.897 51.336 227.025 50.232 225.705 48.912L227.337 46.656C228.345 47.64 229.593 48.456 231.249 48.456C233.097 48.456 234.393 47.28 234.393 45.192C234.393 43.128 233.193 41.976 231.393 41.976C230.337 41.976 229.761 42.24 228.729 42.912L227.121 41.856L227.601 33.216H237.105V36.192H230.649L230.313 39.96C231.033 39.624 231.633 39.456 232.449 39.456C235.425 39.456 237.921 41.232 237.921 45.096C237.921 49.056 234.993 51.336 231.705 51.336Z" fill="#7A3E4A"/>
<path d="M25.9277 31.3457C25.3906 31.4922 25 31.9316 25 32.4687C25 45.0176 35.1562 55.125 47.6562 55.125C48.2422 55.125 48.6816 54.7832 48.8281 54.2461L50 49.168C50.0977 48.6309 49.8535 48.0449 49.3164 47.8008L43.8477 45.457C43.3594 45.2617 42.8223 45.4082 42.4805 45.7988L40.0391 48.7773C36.2305 46.9707 33.1543 43.8457 31.3965 40.1348L34.375 37.6934C34.7656 37.3516 34.9121 36.8145 34.7168 36.3262L32.373 30.8574C32.1289 30.3203 31.543 30.0273 31.0059 30.1738L25.9277 31.3457Z" fill="#7A3E4A"/>
<path d="M350.324 29.385V30.607H345.111V35.027H343.863V30.607H338.715V29.385H343.863V25.121H339.391V23.938H349.583V25.121H345.111V29.385H350.324ZM340.236 25.992L341.328 25.654C341.809 26.551 342.303 27.708 342.472 28.462L341.315 28.852C341.146 28.111 340.704 26.902 340.236 25.992ZM347.399 28.865L346.359 28.527C346.801 27.747 347.347 26.512 347.633 25.602L348.92 25.953C348.452 26.967 347.88 28.137 347.399 28.865ZM355.108 32.817H361.231V29.515H355.108V32.817ZM361.231 25.147H355.108V28.319H361.231V25.147ZM353.873 23.925H362.518V34.832H361.231V34.039H355.108V34.884H353.873V23.925ZM367.237 29.06C366.678 29.06 366.236 28.618 366.236 28.02C366.236 27.409 366.678 26.954 367.237 26.954C367.796 26.954 368.238 27.409 368.238 28.02C368.238 28.618 367.796 29.06 367.237 29.06ZM367.237 34.169C366.678 34.169 366.236 33.74 366.236 33.129C366.236 32.505 366.678 32.063 367.237 32.063C367.796 32.063 368.238 32.505 368.238 33.129C368.238 33.74 367.796 34.169 367.237 34.169ZM370.94 34V32.765H373.033V26.109H371.317V25.16C372.214 24.991 372.851 24.77 373.397 24.419H374.528V32.765H376.4V34H370.94ZM379.004 34V32.765H381.097V26.109H379.381V25.16C380.278 24.991 380.915 24.77 381.461 24.419H382.592V32.765H384.464V34H379.004ZM387.887 29.06C387.328 29.06 386.886 28.618 386.886 28.02C386.886 27.409 387.328 26.954 387.887 26.954C388.446 26.954 388.888 27.409 388.888 28.02C388.888 28.618 388.446 29.06 387.887 29.06ZM387.887 34.169C387.328 34.169 386.886 33.74 386.886 33.129C386.886 32.505 387.328 32.063 387.887 32.063C388.446 32.063 388.888 32.505 388.888 33.129C388.888 33.74 388.446 34.169 387.887 34.169ZM394.177 34.169C392.305 34.169 391.083 32.505 391.083 29.177C391.083 25.862 392.305 24.25 394.177 24.25C396.049 24.25 397.271 25.875 397.271 29.177C397.271 32.505 396.049 34.169 394.177 34.169ZM394.177 32.986C395.152 32.986 395.841 31.946 395.841 29.177C395.841 26.434 395.152 25.433 394.177 25.433C393.202 25.433 392.513 26.434 392.513 29.177C392.513 31.946 393.202 32.986 394.177 32.986ZM402.241 34.169C400.369 34.169 399.147 32.505 399.147 29.177C399.147 25.862 400.369 24.25 402.241 24.25C404.113 24.25 405.335 25.875 405.335 29.177C405.335 32.505 404.113 34.169 402.241 34.169ZM402.241 32.986C403.216 32.986 403.905 31.946 403.905 29.177C403.905 26.434 403.216 25.433 402.241 25.433C401.266 25.433 400.577 26.434 400.577 29.177C400.577 31.946 401.266 32.986 402.241 32.986ZM411.579 30.321C410.409 30.321 409.824 29.125 409.005 29.125C408.589 29.125 408.225 29.398 407.9 29.996L407.094 29.411C407.679 28.423 408.368 28.033 409.031 28.033C410.201 28.033 410.786 29.229 411.605 29.229C412.021 29.229 412.372 28.956 412.697 28.345L413.516 28.956C412.918 29.918 412.229 30.321 411.579 30.321ZM415.782 34V32.765H417.875V26.109H416.159V25.16C417.056 24.991 417.693 24.77 418.239 24.419H419.37V32.765H421.242V34H415.782ZM425.238 34C425.407 30.503 426.018 28.267 427.864 25.693H423.366V24.419H429.528V25.342C427.279 28.137 426.928 30.256 426.772 34H425.238ZM432.73 29.06C432.171 29.06 431.729 28.618 431.729 28.02C431.729 27.409 432.171 26.954 432.73 26.954C433.289 26.954 433.731 27.409 433.731 28.02C433.731 28.618 433.289 29.06 432.73 29.06ZM432.73 34.169C432.171 34.169 431.729 33.74 431.729 33.129C431.729 32.505 432.171 32.063 432.73 32.063C433.289 32.063 433.731 32.505 433.731 33.129C433.731 33.74 433.289 34.169 432.73 34.169ZM439.02 34.169C437.148 34.169 435.926 32.505 435.926 29.177C435.926 25.862 437.148 24.25 439.02 24.25C440.892 24.25 442.114 25.875 442.114 29.177C442.114 32.505 440.892 34.169 439.02 34.169ZM439.02 32.986C439.995 32.986 440.684 31.946 440.684 29.177C440.684 26.434 439.995 25.433 439.02 25.433C438.045 25.433 437.356 26.434 437.356 29.177C437.356 31.946 438.045 32.986 439.02 32.986ZM447.084 34.169C445.212 34.169 443.99 32.505 443.99 29.177C443.99 25.862 445.212 24.25 447.084 24.25C448.956 24.25 450.178 25.875 450.178 29.177C450.178 32.505 448.956 34.169 447.084 34.169ZM447.084 32.986C448.059 32.986 448.748 31.946 448.748 29.177C448.748 26.434 448.059 25.433 447.084 25.433C446.109 25.433 445.42 26.434 445.42 29.177C445.42 31.946 446.109 32.986 447.084 32.986Z" fill="#7A3E4A"/>
<path d="M278.854 46.532V45.037H272.341V46.532H278.854ZM273.277 40.89V42.138H277.775V40.89H273.277ZM278.958 43.048H275.994C275.864 43.373 275.734 43.698 275.617 43.984H280.063V48.027H278.854V47.572H272.341V48.04H271.184V43.984H274.434C274.525 43.685 274.603 43.347 274.681 43.048H272.159V39.993H278.958V43.048ZM279.023 38.121H280.96V40.747H279.803V39.148H271.301V40.747H270.183V38.121H271.899C271.665 37.679 271.275 37.133 270.924 36.717L271.977 36.275C272.419 36.769 272.939 37.458 273.16 37.939L272.757 38.121H275.058C274.876 37.627 274.486 36.938 274.135 36.418L275.188 36.054C275.591 36.587 276.033 37.341 276.202 37.822L275.435 38.121H277.71C278.139 37.575 278.659 36.769 278.958 36.184L280.245 36.587C279.842 37.12 279.413 37.666 279.023 38.121ZM290.931 39.317H287.434C287.668 39.694 287.902 40.162 287.993 40.474L287.616 40.552H290.359C290.554 40.201 290.762 39.733 290.931 39.317ZM294.844 45.011H290.775C291.919 45.817 293.596 46.48 295.182 46.779C294.909 47.039 294.558 47.533 294.376 47.858C292.686 47.403 290.944 46.532 289.722 45.414V48.027H288.539V45.505C287.304 46.545 285.549 47.39 283.924 47.845C283.742 47.533 283.404 47.078 283.131 46.818C284.678 46.493 286.368 45.817 287.512 45.011H283.495V43.997H288.539V43.204H284.704V42.294H288.539V41.514H284.067V40.552H286.732C286.615 40.188 286.394 39.72 286.186 39.369L286.498 39.317H283.547V38.303H285.471C285.276 37.796 284.886 37.081 284.522 36.548L285.575 36.197C285.978 36.756 286.433 37.549 286.615 38.056L285.952 38.303H287.382V36.08H288.513V38.303H289.8V36.08H290.944V38.303H292.348L291.854 38.147C292.166 37.627 292.569 36.808 292.764 36.223L294.012 36.535C293.661 37.172 293.271 37.822 292.933 38.303H294.805V39.317H292.296C292.049 39.759 291.789 40.188 291.568 40.552H294.324V41.514H289.722V42.294H293.713V43.204H289.722V43.997H294.844V45.011ZM299.966 38.004H298.406V40.617H299.966V38.004ZM298.406 44.426H299.966V41.683H298.406V44.426ZM301.11 36.912V45.505H298.406V46.597H297.288V36.912H301.11ZM302.046 44.361L303.021 43.802C303.645 44.452 304.36 45.336 304.646 45.96L303.619 46.584C303.346 45.96 302.67 45.037 302.046 44.361ZM308.793 41.111H307.285V42.411H308.676V43.477H307.285V46.675C307.285 47.299 307.142 47.624 306.713 47.806C306.258 47.988 305.595 48.001 304.581 48.001C304.529 47.676 304.36 47.208 304.191 46.87C304.919 46.896 305.634 46.896 305.829 46.896C306.037 46.883 306.102 46.831 306.102 46.649V43.477H301.37V42.411H306.102V41.111H301.331V40.045H304.425V38.615H301.825V37.562H304.425V36.08H305.634V37.562H308.312V38.615H305.634V40.045H308.793V41.111ZM314.773 37.523H312.316V38.42H314.773V37.523ZM312.316 40.24H314.773V39.278H312.316V40.24ZM315.917 41.137H312.316V48.027H311.12V36.613H315.917V41.137ZM318.101 40.266H320.636V39.278H318.101V40.266ZM320.636 37.523H318.101V38.42H320.636V37.523ZM315.098 45.921H317.737V44.842H315.098V45.921ZM317.737 42.944H315.098V43.958H317.737V42.944ZM321.858 36.613V46.519C321.858 47.208 321.715 47.598 321.247 47.806C320.792 48.001 320.077 48.014 318.985 48.014C318.933 47.689 318.764 47.169 318.608 46.831H315.098V47.481H313.993V42.034H318.868V46.792C319.505 46.818 320.129 46.805 320.337 46.805C320.571 46.792 320.636 46.727 320.636 46.506V41.163H316.944V36.613H321.858Z" fill="#7A3E4A"/>
<path d="M345.124 57.272H350.324V58.455H338.715V57.272H343.837V52.358H339.547V51.175H343.837V47.119H345.124V51.175H349.479V52.358H345.124V57.272ZM355.108 56.817H361.231V53.515H355.108V56.817ZM361.231 49.147H355.108V52.319H361.231V49.147ZM353.873 47.925H362.518V58.832H361.231V58.039H355.108V58.884H353.873V47.925ZM371.137 54.295L370.383 55.296C370.097 54.893 369.525 54.243 369.018 53.71V59.027H367.835V54.295C367.289 54.841 366.73 55.309 366.171 55.686C366.067 55.374 365.755 54.802 365.586 54.568C366.99 53.723 368.433 52.202 369.252 50.577H366.054V49.485H367.835V47.093H369.018V49.485H369.863L370.071 49.446L370.747 49.888C370.383 50.837 369.876 51.747 369.291 52.579C369.863 53.073 370.864 54.022 371.137 54.295ZM372.242 49.017V51.994H376.077V49.017H372.242ZM375.973 57.935H376.662C376.922 57.935 376.961 57.649 377 56.128C377.234 56.31 377.715 56.505 378.014 56.583C377.91 58.416 377.65 58.936 376.779 58.936H375.765C374.751 58.936 374.53 58.585 374.53 57.493V53.086H373.49C373.347 55.881 372.931 57.896 370.682 59.066C370.526 58.78 370.201 58.325 369.915 58.117C371.904 57.142 372.203 55.478 372.307 53.086H371.111V47.925H377.273V53.086H375.7V57.48C375.7 57.883 375.739 57.935 375.973 57.935ZM385.45 51.084C384.852 51.084 384.358 50.642 384.358 50.005C384.358 49.368 384.852 48.913 385.45 48.913C386.048 48.913 386.542 49.368 386.542 50.005C386.542 50.642 386.048 51.084 385.45 51.084ZM385.45 57.376C384.852 57.376 384.358 56.934 384.358 56.31C384.358 55.66 384.852 55.218 385.45 55.218C386.048 55.218 386.542 55.66 386.542 56.31C386.542 56.934 386.048 57.376 385.45 57.376ZM393.718 58V56.765H395.811V50.109H394.095V49.16C394.992 48.991 395.629 48.77 396.175 48.419H397.306V56.765H399.178V58H393.718ZM401.782 58V56.765H403.875V50.109H402.159V49.16C403.056 48.991 403.693 48.77 404.239 48.419H405.37V56.765H407.242V58H401.782ZM410.665 53.06C410.106 53.06 409.664 52.618 409.664 52.02C409.664 51.409 410.106 50.954 410.665 50.954C411.224 50.954 411.666 51.409 411.666 52.02C411.666 52.618 411.224 53.06 410.665 53.06ZM410.665 58.169C410.106 58.169 409.664 57.74 409.664 57.129C409.664 56.505 410.106 56.063 410.665 56.063C411.224 56.063 411.666 56.505 411.666 57.129C411.666 57.74 411.224 58.169 410.665 58.169ZM416.955 58.169C415.083 58.169 413.861 56.505 413.861 53.177C413.861 49.862 415.083 48.25 416.955 48.25C418.827 48.25 420.049 49.875 420.049 53.177C420.049 56.505 418.827 58.169 416.955 58.169ZM416.955 56.986C417.93 56.986 418.619 55.946 418.619 53.177C418.619 50.434 417.93 49.433 416.955 49.433C415.98 49.433 415.291 50.434 415.291 53.177C415.291 55.946 415.98 56.986 416.955 56.986ZM425.019 58.169C423.147 58.169 421.925 56.505 421.925 53.177C421.925 49.862 423.147 48.25 425.019 48.25C426.891 48.25 428.113 49.875 428.113 53.177C428.113 56.505 426.891 58.169 425.019 58.169ZM425.019 56.986C425.994 56.986 426.683 55.946 426.683 53.177C426.683 50.434 425.994 49.433 425.019 49.433C424.044 49.433 423.355 50.434 423.355 53.177C423.355 55.946 424.044 56.986 425.019 56.986ZM434.357 54.321C433.187 54.321 432.602 53.125 431.783 53.125C431.367 53.125 431.003 53.398 430.678 53.996L429.872 53.411C430.457 52.423 431.146 52.033 431.809 52.033C432.979 52.033 433.564 53.229 434.383 53.229C434.799 53.229 435.15 52.956 435.475 52.345L436.294 52.956C435.696 53.918 435.007 54.321 434.357 54.321ZM438.56 58V56.765H440.653V50.109H438.937V49.16C439.834 48.991 440.471 48.77 441.017 48.419H442.148V56.765H444.02V58H438.56ZM449.224 58.169C447.43 58.169 446.104 57.103 446.104 55.621C446.104 54.36 446.936 53.515 447.82 53.047V52.982C447.105 52.475 446.533 51.76 446.533 50.746C446.533 49.251 447.703 48.276 449.263 48.276C450.927 48.276 451.967 49.316 451.967 50.811C451.967 51.786 451.304 52.618 450.706 53.06V53.125C451.564 53.606 452.318 54.36 452.318 55.66C452.318 57.077 451.07 58.169 449.224 58.169ZM449.848 52.683C450.42 52.15 450.706 51.539 450.706 50.902C450.706 50.018 450.173 49.355 449.237 49.355C448.457 49.355 447.872 49.888 447.872 50.746C447.872 51.786 448.782 52.267 449.848 52.683ZM449.25 57.09C450.238 57.09 450.901 56.518 450.901 55.621C450.901 54.451 449.848 54.009 448.548 53.476C447.885 53.931 447.43 54.646 447.43 55.478C447.43 56.427 448.223 57.09 449.25 57.09ZM455.508 53.06C454.949 53.06 454.507 52.618 454.507 52.02C454.507 51.409 454.949 50.954 455.508 50.954C456.067 50.954 456.509 51.409 456.509 52.02C456.509 52.618 456.067 53.06 455.508 53.06ZM455.508 58.169C454.949 58.169 454.507 57.74 454.507 57.129C454.507 56.505 454.949 56.063 455.508 56.063C456.067 56.063 456.509 56.505 456.509 57.129C456.509 57.74 456.067 58.169 455.508 58.169ZM461.798 58.169C459.926 58.169 458.704 56.505 458.704 53.177C458.704 49.862 459.926 48.25 461.798 48.25C463.67 48.25 464.892 49.875 464.892 53.177C464.892 56.505 463.67 58.169 461.798 58.169ZM461.798 56.986C462.773 56.986 463.462 55.946 463.462 53.177C463.462 50.434 462.773 49.433 461.798 49.433C460.823 49.433 460.134 50.434 460.134 53.177C460.134 55.946 460.823 56.986 461.798 56.986ZM469.862 58.169C467.99 58.169 466.768 56.505 466.768 53.177C466.768 49.862 467.99 48.25 469.862 48.25C471.734 48.25 472.956 49.875 472.956 53.177C472.956 56.505 471.734 58.169 469.862 58.169ZM469.862 56.986C470.837 56.986 471.526 55.946 471.526 53.177C471.526 50.434 470.837 49.433 469.862 49.433C468.887 49.433 468.198 50.434 468.198 53.177C468.198 55.946 468.887 56.986 469.862 56.986Z" fill="#7A3E4A"/>
</svg>
