<?xml version="1.0" standalone="no"?>
<!DOCTYPE svg PUBLIC "-//W3C//DTD SVG 20010904//EN"
 "http://www.w3.org/TR/2001/REC-SVG-20010904/DTD/svg10.dtd">
<svg version="1.0" xmlns="http://www.w3.org/2000/svg"
 width="500.000000pt" height="500.000000pt" viewBox="0 0 500.000000 500.000000"
 preserveAspectRatio="xMidYMid meet">
<metadata>
Created by potrace 1.14, written by Peter Selinger 2001-2017
</metadata>
<g transform="translate(0.000000,500.000000) scale(0.100000,-0.100000)"
fill="#000000" stroke="none">
<path d="M2690 4811 c0 -3 -18 -17 -40 -31 -22 -13 -40 -27 -40 -31 0 -4 -6
-14 -12 -21 -15 -15 -40 -80 -29 -73 5 2 8 -9 9 -25 1 -30 6 -39 52 -88 14
-14 24 -32 22 -40 -2 -9 1 -11 10 -6 10 6 11 5 1 -8 -7 -8 -10 -18 -6 -21 3
-4 1 -7 -5 -7 -7 0 -12 -11 -12 -25 0 -14 -5 -25 -11 -25 -5 0 -8 -4 -4 -9 3
-5 1 -12 -5 -16 -5 -3 -10 -15 -10 -25 0 -10 -6 -21 -12 -23 -10 -4 -10 -6 0
-6 10 -1 10 -6 -2 -23 -9 -12 -16 -29 -16 -38 0 -8 -6 -27 -14 -41 -13 -25
-29 -80 -26 -88 1 -2 -3 -7 -9 -10 -6 -4 -12 -16 -14 -27 -1 -11 -12 -34 -24
-50 -13 -17 -19 -35 -15 -39 4 -5 3 -6 -3 -4 -12 6 -85 -68 -76 -77 3 -4 -2
-4 -12 -1 -10 4 -16 3 -12 -3 3 -5 -3 -15 -15 -22 -11 -7 -20 -16 -20 -21 0
-4 -11 -18 -25 -31 -14 -13 -25 -28 -25 -35 0 -6 -7 -11 -14 -11 -8 0 -21 -12
-29 -27 -7 -16 -18 -27 -24 -26 -6 1 -9 -6 -6 -16 3 -10 -1 -22 -8 -26 -8 -6
-10 -4 -4 5 5 9 4 11 -3 6 -7 -4 -12 -14 -12 -22 0 -8 -4 -14 -8 -14 -4 0 -16
-14 -26 -30 -9 -17 -22 -27 -28 -24 -7 4 -8 2 -4 -4 4 -7 3 -12 -3 -12 -6 0
-7 -7 -4 -17 4 -10 2 -14 -4 -10 -10 6 -27 -27 -24 -45 1 -5 -3 -8 -8 -8 -24
0 -38 -32 -38 -83 0 -30 -4 -60 -7 -66 -4 -6 -1 -11 6 -11 8 0 6 -5 -5 -11 -9
-6 -15 -14 -12 -19 3 -5 1 -11 -5 -15 -14 -9 -13 -165 1 -165 6 0 9 -6 6 -14
-7 -17 22 -96 35 -96 4 0 8 -9 8 -20 0 -11 6 -23 14 -26 8 -3 17 -17 21 -32 6
-26 7 -26 21 -7 14 19 14 19 12 -5 -3 -28 -19 -50 -30 -43 -5 2 -8 -1 -8 -7 0
-6 -5 -8 -10 -5 -6 4 -9 3 -8 -2 4 -12 -28 -54 -35 -46 -4 3 -7 -1 -7 -10 0
-9 -5 -19 -12 -23 -7 -4 -8 -3 -4 4 4 7 5 12 1 12 -3 0 -10 -12 -16 -26 -5
-15 -12 -24 -15 -21 -7 7 -54 -41 -54 -55 0 -5 -3 -7 -7 -5 -10 6 -34 -19 -27
-26 3 -3 -4 -8 -15 -12 -12 -3 -19 -10 -16 -15 3 -5 -4 -12 -16 -15 -14 -5
-19 -13 -16 -25 3 -13 0 -16 -14 -13 -11 3 -21 -1 -25 -11 -3 -9 -13 -16 -21
-16 -8 0 -12 -4 -9 -9 6 -9 -18 -34 -25 -26 -3 2 -17 -14 -32 -37 -15 -23 -27
-38 -27 -33 0 6 -10 -6 -22 -25 -12 -19 -21 -38 -20 -42 1 -5 -5 -8 -13 -8
-18 0 -20 -26 -3 -36 7 -5 9 -2 5 9 -4 11 -2 14 9 10 13 -5 13 -8 -2 -24 -20
-22 -25 -24 -22 -8 2 6 -3 14 -11 17 -10 3 -12 0 -8 -12 4 -10 3 -15 -3 -11
-6 3 -10 1 -10 -5 0 -6 -5 -8 -12 -4 -8 5 -9 2 -5 -9 3 -10 2 -17 -3 -17 -5 0
-12 -11 -16 -25 -3 -14 -10 -22 -15 -19 -12 7 -11 -20 1 -32 7 -7 2 -22 -15
-48 -14 -20 -25 -41 -25 -45 0 -5 -7 -14 -15 -21 -9 -8 -15 -8 -15 -2 0 6 5
12 12 14 7 3 9 12 5 22 -7 17 -9 16 -27 -7 -24 -30 -26 -55 -5 -63 8 -4 12
-11 9 -16 -4 -6 -14 -1 -24 12 l-18 23 -7 -31 c-3 -18 -14 -36 -22 -41 -10 -5
-14 -16 -11 -29 4 -15 2 -19 -8 -15 -17 6 -18 -18 -1 -37 10 -12 9 -12 -4 -2
-19 14 -32 3 -43 -35 -4 -13 -11 -23 -16 -23 -5 0 -7 -7 -4 -15 4 -8 1 -15 -5
-15 -6 0 -11 -9 -11 -21 0 -13 -4 -18 -12 -13 -6 4 -8 3 -4 -4 3 -6 2 -13 -4
-17 -5 -3 -10 -15 -10 -26 0 -10 -4 -19 -9 -19 -6 0 -8 -9 -6 -20 2 -11 0 -20
-6 -20 -5 0 -9 -9 -9 -20 0 -11 -4 -20 -8 -20 -5 0 -8 -16 -7 -35 1 -19 -1
-35 -5 -35 -5 0 -7 -13 -6 -29 1 -17 -2 -28 -6 -25 -4 3 -8 0 -8 -6 0 -6 -5
-8 -12 -4 -9 5 -9 2 1 -9 9 -11 10 -17 2 -17 -6 0 -11 -12 -11 -26 0 -15 -4
-23 -11 -19 -6 4 -9 1 -8 -6 3 -17 -8 -44 -65 -172 -15 -32 -24 -63 -21 -68 4
-5 1 -9 -4 -9 -6 0 -11 -9 -11 -20 0 -11 -7 -23 -15 -26 -8 -4 -13 -10 -10
-14 3 -5 -1 -14 -8 -22 -8 -7 -12 -19 -9 -27 3 -8 0 -11 -7 -7 -7 4 -11 -1
-11 -13 0 -11 -5 -23 -10 -26 -6 -4 -8 -11 -5 -16 4 -5 3 -9 -2 -9 -4 0 -19
-25 -32 -55 -14 -30 -28 -55 -32 -55 -4 0 -10 -16 -13 -35 -4 -19 -11 -35 -16
-35 -6 0 -10 -9 -10 -19 0 -11 -7 -27 -16 -36 -10 -10 -13 -22 -8 -33 7 -16 7
-16 11 1 3 9 9 15 14 12 5 -3 18 -1 29 5 13 7 20 7 20 0 0 -5 -6 -10 -13 -10
-22 0 -54 -33 -50 -50 4 -13 3 -13 -6 0 -5 8 -7 18 -5 22 8 12 -11 9 -24 -4
-7 -7 -12 -20 -12 -30 0 -10 -7 -21 -15 -24 -13 -5 -13 -9 -3 -23 7 -9 8 -13
4 -9 -11 9 -46 -45 -46 -69 0 -9 -3 -14 -6 -10 -3 3 -19 -8 -35 -24 -15 -16
-33 -29 -40 -29 -6 0 -8 -7 -5 -17 4 -10 4 -14 0 -11 -11 12 -66 -22 -60 -37
3 -8 0 -17 -6 -21 -7 -4 -8 -3 -4 4 4 7 4 12 0 12 -10 0 -128 -86 -143 -104
-7 -9 -18 -13 -24 -9 -6 4 -8 0 -4 -11 4 -10 3 -15 -3 -11 -11 7 -79 -57 -97
-92 -18 -35 -1 -53 49 -53 37 0 39 1 27 18 -12 15 -12 16 1 5 18 -14 55 -11
55 5 0 6 4 14 8 19 5 4 7 3 5 -2 -5 -17 15 -17 80 2 55 16 82 33 50 33 -6 0
-8 3 -5 6 4 4 12 2 19 -3 15 -12 48 -13 48 -2 0 3 12 9 27 12 52 10 62 13 69
20 4 4 20 7 35 7 15 0 31 5 34 10 4 6 11 8 16 5 5 -4 9 1 9 9 0 8 -6 14 -13
12 -6 -1 -9 -1 -5 1 4 3 10 4 14 3 4 -1 11 4 16 12 6 9 7 6 3 -10 -6 -20 -4
-21 19 -12 14 5 26 7 26 4 0 -4 6 -1 14 6 8 6 12 19 9 28 -4 14 -3 15 5 2 6
-8 9 -17 7 -21 -5 -7 53 12 72 24 7 5 18 5 25 1 7 -4 8 -3 4 4 -5 8 2 12 21
12 15 0 37 7 47 15 11 8 30 15 44 15 13 0 21 4 17 9 -3 6 3 9 12 9 10 0 32 5
48 12 17 7 36 12 42 11 7 -1 13 2 13 6 0 5 10 9 22 10 11 1 24 7 28 13 4 7 11
11 16 11 5 -1 23 4 39 10 17 7 36 13 43 15 8 1 30 13 50 27 81 53 139 87 150
87 7 0 12 4 12 9 0 8 21 17 44 19 5 0 12 5 15 11 4 6 16 12 26 14 11 1 25 5
30 9 6 3 53 5 105 3 64 -2 98 1 103 8 6 8 7 7 4 -3 -4 -13 11 -16 97 -19 55
-2 124 -4 153 -5 52 -1 82 -21 83 -53 0 -7 4 -13 10 -13 5 0 12 -11 16 -25 3
-14 11 -22 17 -18 6 4 8 0 4 -10 -3 -10 -2 -17 3 -17 6 0 10 -6 10 -14 0 -8
10 -22 22 -30 12 -9 19 -16 15 -16 -12 0 24 -59 58 -96 17 -18 41 -46 54 -62
14 -16 31 -29 38 -29 9 0 6 8 -7 22 -18 19 -19 26 -9 48 7 15 15 24 19 22 10
-6 5 27 -7 50 -6 11 -11 22 -12 25 -4 21 -27 70 -33 70 -11 0 -10 -24 2 -36 6
-6 13 -21 15 -34 2 -13 9 -28 15 -34 15 -15 12 -30 -4 -17 -8 7 -17 23 -20 37
-4 14 -10 23 -14 20 -11 -6 -9 56 2 72 4 7 5 16 1 20 -4 4 -10 1 -12 -5 -6
-17 -20 -17 -26 0 -3 8 3 12 17 12 30 -2 57 -16 50 -26 -3 -5 0 -9 5 -9 6 0
11 -7 11 -15 0 -8 7 -15 15 -15 8 0 15 -5 15 -11 0 -5 4 -7 10 -4 6 4 7 -1 3
-11 -4 -12 -3 -15 5 -10 7 4 12 2 12 -3 0 -6 3 -10 8 -8 4 1 18 -8 31 -20 24
-22 51 -22 32 0 -10 13 -11 16 -11 50 0 32 -15 51 -31 41 -8 -5 -23 -10 -34
-11 -16 -2 -17 -1 -6 6 12 8 12 12 2 25 -18 21 -7 21 14 0 22 -22 33 -9 12 14
-10 10 -17 26 -17 35 0 9 -5 17 -10 17 -6 0 -15 11 -20 25 -5 14 -14 25 -20
25 -5 0 -10 5 -10 10 0 16 97 12 114 -5 8 -9 21 -14 28 -13 7 2 12 -3 11 -9
-2 -7 23 -39 55 -70 31 -32 75 -84 96 -116 46 -69 61 -80 54 -43 -3 15 -3 25
-1 22 14 -14 29 21 23 54 -3 19 -5 42 -5 50 1 16 -59 80 -75 80 -16 0 1 -29
21 -35 11 -4 17 -11 14 -16 -4 -5 1 -9 9 -9 9 0 16 -7 16 -15 0 -8 -3 -15 -6
-15 -10 0 -34 28 -34 40 0 6 -3 9 -7 7 -10 -6 -34 19 -26 27 4 3 0 6 -7 6 -9
0 -8 5 5 13 12 10 14 16 7 21 -7 4 -12 2 -12 -5 0 -7 -6 -4 -14 7 -8 10 -18
16 -22 12 -4 -4 -1 -16 7 -25 7 -10 0 -7 -16 7 -17 14 -33 29 -36 34 -4 5 -19
6 -33 4 -14 -3 -26 -1 -26 4 0 5 -5 6 -12 2 -6 -4 -8 -3 -5 3 10 16 65 8 87
-12 11 -10 23 -15 27 -11 4 4 2 11 -5 15 -10 6 -9 11 4 22 12 9 15 10 10 2 -4
-7 -3 -13 1 -13 5 0 15 6 22 13 10 10 11 9 6 -5 -4 -11 -2 -18 5 -18 6 0 8 -4
5 -10 -3 -6 1 -7 9 -4 9 3 16 2 16 -3 0 -13 59 -45 70 -38 6 4 9 1 8 -6 -2 -7
8 -18 21 -25 14 -7 31 -24 38 -38 8 -14 18 -26 23 -26 6 0 10 -7 10 -15 0 -14
12 -20 33 -16 5 1 6 -3 3 -8 -8 -13 4 -42 15 -35 5 3 9 -5 9 -16 0 -16 5 -20
15 -16 8 3 14 2 13 -2 -1 -4 2 -17 6 -30 6 -19 10 -21 22 -11 15 13 20 44 5
34 -21 -12 -20 15 1 29 12 9 16 16 9 16 -11 0 -11 3 0 17 10 11 10 14 2 9 -8
-4 -13 -1 -13 8 0 9 -4 16 -8 16 -5 0 -14 12 -20 26 -9 18 -17 24 -30 20 -12
-4 -26 3 -41 20 -12 14 -20 28 -18 31 3 3 13 -7 22 -21 19 -29 35 -34 35 -10
0 9 -5 12 -12 8 -8 -5 -9 -2 -5 10 4 9 3 14 -2 11 -5 -3 -12 3 -16 14 -3 10
-23 31 -45 46 -22 15 -40 33 -40 39 -1 6 -8 0 -16 -14 -8 -14 -13 -17 -10 -7
3 10 1 27 -4 38 -9 15 -7 19 5 19 10 0 13 -5 9 -12 -4 -7 2 -4 14 6 12 11 22
16 22 11 0 -4 6 -2 13 4 8 6 18 7 22 3 5 -4 6 0 3 9 -5 13 -1 15 19 11 17 -3
24 -1 19 6 -4 7 7 14 29 18 19 3 35 10 35 14 0 5 11 7 25 5 19 -2 23 1 15 10
-7 9 -5 16 7 26 16 13 17 12 4 -3 -12 -16 -11 -18 17 -18 32 0 102 35 102 51
0 5 6 9 14 9 7 0 16 9 19 21 3 12 10 18 16 14 6 -3 11 1 11 9 0 9 7 16 15 16
8 0 15 7 15 15 0 8 7 15 15 15 8 0 14 4 12 9 -1 5 12 22 28 38 17 17 31 36 33
43 2 8 9 18 16 24 22 20 47 66 40 77 -4 8 -9 7 -15 -2 -5 -8 -9 -9 -9 -3 0 6
7 17 16 24 8 8 14 9 12 4 -2 -5 1 -11 6 -12 13 -5 58 80 51 96 -3 7 0 10 5 7
6 -3 10 3 10 15 0 12 5 18 10 15 6 -3 10 5 10 19 0 14 5 28 10 31 6 4 8 11 5
16 -4 5 -1 9 6 9 7 0 10 3 6 6 -3 4 2 28 12 54 14 36 16 52 7 61 -8 9 -8 10 2
5 8 -5 12 2 12 24 0 17 3 29 8 27 4 -3 7 9 8 26 0 18 3 45 7 60 6 22 5 27 -5
21 -10 -6 -10 -5 -1 7 14 18 17 294 2 321 -7 13 -6 18 3 18 8 0 9 3 3 8 -6 4
-11 23 -12 42 -5 78 -16 146 -25 157 -6 7 -8 20 -4 28 3 8 2 15 -3 15 -4 0 -8
7 -9 15 -1 8 -3 22 -4 30 -1 8 -5 15 -9 15 -4 0 -5 9 -2 20 3 11 0 20 -6 20
-6 0 -11 11 -11 25 0 14 -4 25 -9 25 -4 0 -7 11 -6 25 2 14 0 25 -4 25 -3 0
-12 14 -18 30 -8 20 -8 30 -1 30 7 0 6 5 -1 14 -6 7 -9 21 -5 30 3 9 2 16 -3
16 -6 0 -11 19 -11 43 -2 47 -8 83 -16 96 -4 5 0 12 6 14 10 4 10 6 1 6 -7 1
-13 6 -13 12 0 5 5 7 12 3 7 -4 8 -3 4 5 -5 8 -12 9 -19 2 -9 -7 -12 3 -14 37
-3 79 -7 110 -15 106 -5 -3 -8 9 -8 25 0 17 -4 31 -9 31 -6 0 -8 9 -6 20 2 11
0 22 -6 25 -9 6 -12 -3 -11 -45 1 -20 0 -21 -5 -5 -3 11 -10 26 -17 34 -8 12
-8 13 2 7 6 -4 12 -3 12 3 0 5 -4 13 -10 16 -12 8 -13 42 -1 49 4 3 6 -5 4
-18 -3 -13 0 -27 7 -31 19 -11 5 61 -28 145 -3 8 -6 17 -7 20 -9 25 -54 138
-78 193 -7 15 -15 27 -19 27 -5 0 -8 9 -8 19 0 11 -7 26 -15 35 -8 8 -15 21
-15 30 0 8 -10 25 -23 38 -25 25 -26 27 -34 57 -3 11 -11 22 -19 25 -8 3 -14
12 -14 20 0 7 -7 16 -15 20 -15 5 -22 27 -7 25 21 -4 24 3 6 17 -10 8 -13 12
-5 8 19 -10 61 -14 61 -6 0 4 18 16 40 26 22 11 38 21 36 23 -2 2 11 19 28 38
50 55 54 61 46 75 -6 9 -10 8 -19 -6 -6 -11 -11 -15 -11 -11 0 4 -6 2 -14 -5
-8 -7 -12 -16 -9 -20 2 -4 -2 -5 -10 -2 -8 3 -20 -2 -27 -11 -7 -8 -19 -15
-27 -15 -9 0 -13 -6 -10 -14 4 -10 1 -13 -8 -10 -7 3 -24 0 -37 -6 -20 -10
-21 -10 -6 3 10 8 15 17 11 21 -4 4 1 4 12 0 20 -7 20 -7 0 16 -14 16 -16 22
-5 18 9 -3 24 8 38 26 12 16 22 25 22 19 0 -5 -9 -20 -20 -33 -18 -21 -26 -40
-16 -40 2 0 21 16 40 35 20 19 41 35 47 35 5 0 8 4 5 9 -3 4 3 16 14 26 11 10
20 23 20 28 0 6 8 19 18 30 12 15 13 18 2 12 -12 -6 -13 -5 -2 6 17 19 15 29
-5 23 -17 -5 -17 -5 0 6 11 7 16 22 15 39 -2 31 -27 39 -29 9 -2 -27 -3 -32
-13 -47 -5 -8 -4 -17 5 -23 11 -8 10 -9 -3 -4 -12 3 -23 -4 -35 -24 -9 -17
-23 -30 -31 -30 -7 0 -10 -5 -7 -11 4 -6 -2 -13 -14 -16 -12 -3 -21 -9 -21
-14 0 -5 -6 -9 -14 -9 -7 0 -25 -9 -39 -20 -20 -16 -26 -17 -30 -6 -3 7 -1 18
4 23 6 6 12 19 14 29 2 11 4 20 5 22 2 1 3 5 5 10 2 6 9 26 37 92 6 14 12 30
14 35 1 6 12 33 25 60 12 28 21 54 21 58 -4 15 24 17 68 4 54 -16 184 -12 174
5 -3 4 0 8 7 8 17 0 59 51 65 80 3 14 9 33 15 43 6 11 6 17 -1 17 -6 0 -6 9 0
25 7 18 6 25 -2 25 -9 0 -9 3 0 12 9 9 2 22 -33 55 -26 24 -52 43 -60 43 -7 0
-15 5 -17 11 -5 16 -123 16 -142 0 -13 -11 -16 -11 -16 0 0 9 -3 10 -8 4 -4
-5 -22 -21 -41 -34 l-33 -23 6 28 c4 16 8 39 11 52 2 12 6 26 9 31 4 5 0 12
-6 14 -8 3 -8 6 -2 6 13 1 -6 71 -19 71 -5 0 -5 5 -2 10 3 6 1 10 -4 10 -6 0
-11 5 -11 10 0 17 -39 50 -60 50 -11 0 -20 3 -20 8 0 4 -22 7 -50 8 -27 0 -50
-3 -50 -8 0 -4 -8 -8 -19 -8 -25 0 -101 -76 -101 -102 -1 -7 -7 -24 -15 -38
-14 -25 -14 -25 -15 -2 0 12 0 25 1 29 0 3 -6 10 -15 15 -9 5 -16 17 -16 26 0
24 -57 82 -99 100 -36 15 -121 25 -121 13z m663 -871 c-10 -17 -19 -26 -22
-19 -2 6 3 15 10 20 8 5 10 9 4 9 -5 0 -3 5 5 10 22 15 23 13 3 -20z m-166
-129 c-1 -13 -6 -17 -22 -12 -17 4 -18 6 -2 9 9 2 15 8 12 13 -4 5 -2 9 4 9 5
0 9 -8 8 -19z m120 -13 c-3 -8 -6 -5 -6 6 -1 11 2 17 5 13 3 -3 4 -12 1 -19z
m-53 -17 c3 -5 0 -14 -8 -20 -10 -9 -15 -8 -19 3 -4 11 -1 13 10 9 11 -4 14
-2 9 5 -4 7 -5 12 -2 12 3 0 7 -4 10 -9z m-89 -21 c3 -5 1 -10 -4 -10 -6 0
-11 5 -11 10 0 6 2 10 4 10 3 0 8 -4 11 -10z m-435 -174 c0 -2 -7 -7 -16 -10
-8 -3 -12 -2 -9 4 6 10 25 14 25 6z m-430 -68 c0 -4 -4 -8 -9 -8 -6 0 -12 4
-15 8 -3 5 1 9 9 9 8 0 15 -4 15 -9z m-210 -44 c0 -2 -9 -4 -21 -4 -11 0 -18
4 -14 10 5 8 35 3 35 -6z m280 8 c0 -5 -7 -9 -15 -9 -8 0 -12 4 -9 9 3 4 9 8
15 8 5 0 9 -4 9 -8z m-244 -17 c-3 -23 -22 -39 -31 -26 -3 7 -1 10 6 9 7 -2
14 3 15 10 2 19 4 22 8 22 2 0 3 -7 2 -15z m-56 -20 c0 -8 -4 -15 -8 -15 -5 0
-9 7 -9 15 0 8 4 15 9 15 4 0 8 -7 8 -15z m146 -11 c1 -9 0 -13 -4 -10 -3 4
-7 14 -8 22 -1 9 0 13 4 10 3 -4 7 -14 8 -22z m34 -4 c0 -5 -5 -10 -11 -10 -5
0 -7 5 -4 10 3 6 8 10 11 10 2 0 4 -4 4 -10z m-138 -31 c28 -17 29 -19 8 -13
-14 3 -27 11 -28 15 -2 5 -8 7 -13 3 -5 -3 -9 0 -9 5 0 15 5 14 42 -10z m121
-43 c21 4 21 4 2 -4 -21 -10 -65 4 -65 20 0 5 9 3 21 -5 11 -8 30 -13 42 -11z
m187 10 c0 -2 -7 -6 -15 -10 -8 -3 -15 -1 -15 4 0 6 7 10 15 10 8 0 15 -2 15
-4z m-143 -32 c-3 -3 -12 -4 -19 -1 -8 3 -5 6 6 6 11 1 17 -2 13 -5z m41 -3
c11 -7 10 -9 -3 -14 -9 -4 -14 -3 -10 2 3 5 -1 12 -7 14 -7 3 -8 6 -3 6 6 0
16 -3 23 -8z m77 -23 c6 -4 2 -8 -7 -8 -10 0 -18 7 -18 17 0 9 3 12 8 7 4 -5
12 -12 17 -16z m-4 -51 c-10 -9 -11 -8 -5 6 3 10 9 15 12 12 3 -3 0 -11 -7
-18z m-18 -47 c-3 -12 -8 -19 -11 -16 -5 6 5 36 12 36 2 0 2 -9 -1 -20z m-336
-15 c0 -8 -4 -12 -9 -9 -5 3 -6 10 -3 15 9 13 12 11 12 -6z m1396 0 c-3 -9 -8
-14 -10 -11 -3 3 -2 9 2 15 9 16 15 13 8 -4z m-1088 -14 c-3 -6 -14 -11 -23
-11 -13 0 -13 2 4 14 21 15 30 14 19 -3z m1100 -32 c4 -11 4 -23 0 -27 -7 -7
-25 17 -25 36 0 20 18 14 25 -9z m-1142 -4 c-3 -9 -8 -14 -10 -11 -3 3 -2 9 2
15 9 16 15 13 8 -4z m-245 -30 c-3 -3 -9 2 -12 12 -6 14 -5 15 5 6 7 -7 10
-15 7 -18z m263 -108 c-10 -9 -11 -8 -5 6 3 10 9 15 12 12 3 -3 0 -11 -7 -18z
m-118 -17 c3 -11 2 -22 -2 -24 -4 -3 -8 6 -9 20 -2 29 4 31 11 4z m37 -4 c0
-3 -4 -8 -10 -11 -5 -3 -10 -1 -10 4 0 6 5 11 10 11 6 0 10 -2 10 -4z m1260
-6 c0 -5 -5 -10 -11 -10 -5 0 -7 5 -4 10 3 6 8 10 11 10 2 0 4 -4 4 -10z
m-1270 -36 c0 -8 -5 -12 -10 -9 -6 4 -8 11 -5 16 9 14 15 11 15 -7z m-40 -4
c0 -5 -4 -10 -10 -10 -5 0 -10 5 -10 10 0 6 5 10 10 10 6 0 10 -4 10 -10z
m1328 -75 c-3 -3 -9 2 -12 12 -6 14 -5 15 5 6 7 -7 10 -15 7 -18z m12 -19 c0
-3 -4 -8 -10 -11 -5 -3 -10 -1 -10 4 0 6 5 11 10 11 6 0 10 -2 10 -4z m25
-126 c3 -5 1 -10 -4 -10 -6 0 -11 5 -11 10 0 6 2 10 4 10 3 0 8 -4 11 -10z
m-1 -72 c-3 -4 1 -16 8 -27 10 -16 10 -23 1 -32 -9 -9 -10 -6 -6 11 4 14 2 21
-3 17 -6 -3 -10 10 -11 30 0 22 2 31 7 22 5 -7 7 -16 4 -21z m40 -154 c5 -14
4 -15 -9 -4 -17 14 -19 20 -6 20 5 0 12 -7 15 -16z m-1913 -45 c-5 -13 -10
-19 -10 -12 -1 15 10 45 15 40 3 -2 0 -15 -5 -28z m743 -187 c3 -5 -1 -9 -9
-9 -8 0 -12 4 -9 9 3 4 7 8 9 8 2 0 6 -4 9 -8z m19 -137 c-7 -21 -12 -19 -10
4 0 11 5 18 9 15 4 -3 5 -11 1 -19z m-968 -3 c-3 -3 -11 0 -18 7 -9 10 -8 11
6 5 10 -3 15 -9 12 -12z m-35 -36 c0 -3 -4 -8 -10 -11 -5 -3 -10 -1 -10 4 0 6
5 11 10 11 6 0 10 -2 10 -4z m1020 -5 c0 -5 -7 -14 -15 -21 -10 -9 -15 -9 -15
-1 0 6 5 11 11 11 5 0 7 5 4 10 -3 6 -1 10 4 10 6 0 11 -4 11 -9z m1245 -61
c3 -5 1 -10 -4 -10 -6 0 -11 5 -11 10 0 6 2 10 4 10 3 0 8 -4 11 -10z m-1320
-40 c4 -6 1 -9 -7 -8 -7 2 -12 -2 -11 -8 1 -6 -5 -11 -13 -11 -11 0 -11 4 3
19 19 21 20 21 28 8z m89 2 c3 -5 -1 -9 -9 -9 -8 0 -12 4 -9 9 3 4 7 8 9 8 2
0 6 -4 9 -8z m-17 -47 c0 -8 -4 -12 -9 -9 -5 3 -6 10 -3 15 9 13 12 11 12 -6z
m-107 -20 c-13 -14 -27 -25 -32 -25 -9 0 42 49 51 50 3 0 -6 -11 -19 -25z
m122 -70 c3 -13 2 -22 -2 -20 -4 3 -10 16 -12 30 -3 13 -2 22 2 20 4 -3 10
-16 12 -30z m-396 12 c4 -4 -2 -7 -14 -7 -12 0 -22 4 -22 9 0 10 26 9 36 -2z
m34 9 c0 -3 -4 -8 -10 -11 -5 -3 -10 -1 -10 4 0 6 5 11 10 11 6 0 10 -2 10 -4z
m180 -6 c-8 -5 -19 -10 -25 -10 -5 0 -3 5 5 10 8 5 20 10 25 10 6 0 3 -5 -5
-10z m-83 -24 c2 -2 -9 -3 -26 -2 -16 0 -27 4 -25 8 4 7 43 3 51 -6z m28 4 c3
-5 1 -10 -4 -10 -6 0 -11 5 -11 10 0 6 2 10 4 10 3 0 8 -4 11 -10z m195 -14
c0 -3 -4 -8 -10 -11 -5 -3 -10 -1 -10 4 0 6 5 11 10 11 6 0 10 -2 10 -4z
m-1135 -16 c3 -6 -1 -7 -9 -4 -18 7 -21 14 -7 14 6 0 13 -4 16 -10z m-5 -29
c0 -6 -5 -13 -10 -16 -6 -4 -7 -11 -4 -17 4 -6 2 -8 -4 -5 -8 6 -9 23 -3 45 2
7 21 1 21 -7z m720 -11 c0 -5 -2 -10 -4 -10 -3 0 -8 5 -11 10 -3 6 -1 10 4 10
6 0 11 -4 11 -10z m-33 -22 c-3 -8 -6 -5 -6 6 -1 11 2 17 5 13 3 -3 4 -12 1
-19z m-716 -31 c-6 -8 -9 -16 -6 -19 3 -2 -2 -5 -10 -5 -10 0 -12 4 -5 12 5 7
7 15 3 18 -3 4 2 7 12 7 13 0 15 -3 6 -13z m1120 -10 c-10 -9 -11 -8 -5 6 3
10 9 15 12 12 3 -3 0 -11 -7 -18z m-251 -6 c0 -5 -9 -13 -20 -16 -11 -4 -18
-10 -16 -14 3 -4 -5 -8 -16 -8 -17 -2 -14 3 13 22 40 28 39 28 39 16z m-120
-15 c0 -3 -4 -8 -10 -11 -5 -3 -10 -1 -10 4 0 6 5 11 10 11 6 0 10 -2 10 -4z
m355 -6 c3 -6 -1 -7 -9 -4 -18 7 -21 14 -7 14 6 0 13 -4 16 -10z m-315 -25 c0
-1 -12 -2 -26 -2 -17 0 -22 2 -13 7 10 7 39 3 39 -5z m-60 -5 c0 -5 -2 -10 -4
-10 -3 0 -8 5 -11 10 -3 6 -1 10 4 10 6 0 11 -4 11 -10z m320 7 c0 -2 -9 -12
-20 -22 -24 -21 -27 -14 -4 9 15 15 24 20 24 13z m-189 -30 c-10 -9 -11 -8 -5
6 3 10 9 15 12 12 3 -3 0 -11 -7 -18z m-21 -79 c-11 -12 -18 -29 -15 -38 5
-11 3 -12 -5 -4 -9 9 -8 18 5 38 10 14 21 26 27 26 5 0 -1 -10 -12 -22z m106
0 c4 -7 3 -8 -4 -4 -8 5 -12 0 -12 -13 0 -12 5 -21 10 -21 6 0 10 -4 10 -10 0
-18 -18 -11 -25 10 -3 11 -14 20 -23 20 -12 1 -10 5 8 15 31 18 27 17 36 3z
m1349 -27 c3 -5 2 -12 -3 -15 -5 -3 -9 1 -9 9 0 17 3 19 12 6z m-1225 -15 c0
-2 -7 -7 -16 -10 -8 -3 -12 -2 -9 4 6 10 25 14 25 6z m1300 -86 c0 -5 -5 -10
-11 -10 -5 0 -7 5 -4 10 3 6 8 10 11 10 2 0 4 -4 4 -10z m-1620 -4 c0 -2 -8
-10 -17 -17 -16 -13 -17 -12 -4 4 13 16 21 21 21 13z m-150 -16 c0 -5 -2 -10
-4 -10 -3 0 -8 5 -11 10 -3 6 -1 10 4 10 6 0 11 -4 11 -10z m370 -18 c-5 -2
-10 -10 -10 -17 0 -7 -9 -15 -21 -18 -12 -3 -18 -10 -15 -16 4 -5 2 -12 -3
-15 -5 -4 -12 -2 -15 2 -3 5 8 21 25 36 26 23 28 30 17 43 -12 15 -11 15 10 2
12 -8 18 -15 12 -17z m-380 -7 c6 3 10 4 10 1 0 -3 -10 -11 -22 -17 -13 -6
-20 -8 -16 -4 4 4 0 14 -10 22 -15 13 -15 13 6 3 12 -6 27 -8 32 -5z m-205 -5
c3 -6 -1 -7 -9 -4 -18 7 -21 14 -7 14 6 0 13 -4 16 -10z m-22 -25 c-3 -9 -8
-14 -10 -11 -3 3 -2 9 2 15 9 16 15 13 8 -4z m181 2 c4 4 4 -1 0 -12 -5 -11
-9 -14 -12 -7 -2 7 -7 10 -11 8 -4 -3 -8 1 -8 9 0 10 4 12 12 5 7 -5 15 -7 19
-3z m-674 -5 c0 -4 -4 -12 -10 -18 -5 -5 -10 -23 -12 -40 -1 -17 -7 -31 -13
-31 -18 0 -14 29 6 58 10 14 16 29 12 33 -3 3 -1 6 5 6 7 0 12 -4 12 -8z m637
-46 c-9 -7 -17 -19 -18 -27 0 -11 -2 -11 -6 -1 -5 13 28 53 37 45 3 -3 -3 -10
-13 -17z m373 -18 c-22 -21 -86 -36 -75 -18 3 4 13 6 23 4 23 -5 66 31 56 48
-5 10 -4 11 6 1 12 -11 10 -17 -10 -35z m-530 -4 c0 -8 -6 -14 -12 -14 -7 0
-5 -5 5 -11 9 -5 17 -16 17 -22 0 -16 -37 -19 -46 -5 -5 7 -1 9 9 5 9 -3 19
-2 22 3 3 5 -4 12 -16 15 -19 6 -19 8 -5 24 9 10 13 21 9 26 -5 4 -2 5 5 1 6
-4 12 -14 12 -22z m76 -13 c33 12 33 12 27 -9 -2 -10 -11 -19 -18 -19 -8 0
-12 4 -9 9 3 4 0 8 -5 8 -6 0 -11 -6 -11 -12 0 -9 -4 -8 -10 2 -5 8 -9 20 -9
25 0 6 3 5 5 -2 4 -9 13 -9 30 -2z m221 -36 c0 -8 -4 -12 -9 -9 -5 3 -6 10 -3
15 9 13 12 11 12 -6z m-12 -25 c3 -6 -1 -7 -9 -4 -18 7 -21 14 -7 14 6 0 13
-4 16 -10z m125 6 c0 -2 -8 -10 -17 -17 -16 -13 -17 -12 -4 4 13 16 21 21 21
13z m32 -9 c-12 -7 -19 -17 -15 -22 4 -4 2 -5 -5 -1 -7 4 -15 1 -18 -8 -3 -9
-10 -13 -15 -10 -12 7 41 53 61 53 9 0 6 -5 -8 -12z m-188 -30 c-3 -8 -11 -14
-19 -14 -21 0 -19 15 3 20 9 3 18 5 19 6 1 0 0 -5 -3 -12z m-518 -16 c0 -11
-4 -17 -8 -15 -4 3 -8 12 -8 20 0 8 4 14 8 14 4 0 8 -9 8 -19z m340 10 c9 8
11 5 7 -10 -7 -26 -6 -26 -29 2 -10 12 -12 16 -4 10 9 -9 17 -9 26 -2z m55
-14 c-10 -9 -11 -8 -5 6 3 10 9 15 12 12 3 -3 0 -11 -7 -18z m-276 3 c3 -5 1
-10 -4 -10 -6 0 -11 5 -11 10 0 6 2 10 4 10 3 0 8 -4 11 -10z m-41 -22 c-3 -4
-11 -5 -19 -1 -21 7 -19 12 4 10 11 0 18 -5 15 -9z m-94 -6 c0 -5 -7 -9 -15
-9 -8 0 -12 4 -9 9 3 4 9 8 15 8 5 0 9 -4 9 -8z m320 -21 c0 -6 -4 -12 -8 -15
-5 -3 -9 1 -9 9 0 8 4 15 9 15 4 0 8 -4 8 -9z m1795 -1 c3 -5 1 -10 -4 -10 -6
0 -11 5 -11 10 0 6 2 10 4 10 3 0 8 -4 11 -10z m-2432 -25 c-21 -16 -28 -12
-20 9 4 9 13 13 22 10 14 -6 13 -8 -2 -19z m268 -27 c-14 -22 -21 -27 -21 -15
0 9 5 17 12 17 6 0 9 3 5 6 -3 3 0 12 6 19 21 23 20 7 -2 -27z m-294 -20 c-3
-8 -6 -5 -6 6 -1 11 2 17 5 13 3 -3 4 -12 1 -19z m494 5 c13 -16 12 -17 -3 -4
-17 13 -22 21 -14 21 2 0 10 -8 17 -17z m99 13 c0 -2 -8 -10 -17 -17 -16 -13
-17 -12 -4 4 13 16 21 21 21 13z m-596 -56 c-6 -5 -24 21 -24 34 0 6 6 1 14
-10 8 -10 12 -21 10 -24z m826 20 c0 -5 -2 -10 -4 -10 -3 0 -8 5 -11 10 -3 6
-1 10 4 10 6 0 11 -4 11 -10z m-90 -14 c0 -2 -8 -10 -17 -17 -16 -13 -17 -12
-4 4 13 16 21 21 21 13z m-328 -34 c-26 -12 -35 -13 -45 -3 -9 10 -9 11 5 6 9
-4 25 -2 35 4 10 6 23 10 28 10 6 0 -5 -8 -23 -17z m292 2 c3 -8 2 -12 -4 -9
-6 3 -10 10 -10 16 0 14 7 11 14 -7z m-741 -14 c3 -11 1 -18 -4 -14 -5 3 -9
12 -9 20 0 20 7 17 13 -6z m564 5 c0 -8 -4 -12 -9 -9 -5 3 -6 10 -3 15 9 13
12 11 12 -6z m-265 -10 c0 -5 -5 -11 -10 -13 -5 -1 -9 4 -9 13 0 9 4 14 9 13
5 -2 10 -8 10 -13z m411 0 c-3 -9 -11 -14 -17 -12 -6 2 -20 0 -31 -5 -16 -7
-16 -5 4 11 28 25 53 28 44 6z m-723 -30 c0 -5 -5 -3 -10 5 -5 8 -10 20 -10
25 0 6 5 3 10 -5 5 -8 10 -19 10 -25z m406 23 c4 -7 4 -10 -1 -6 -4 4 -15 3
-22 -4 -18 -14 -52 -18 -59 -6 -3 4 8 8 25 8 16 0 33 5 36 10 8 13 12 13 21
-2z m-249 -13 c0 -8 -4 -15 -9 -15 -10 0 -11 14 -1 23 9 10 10 9 10 -8z m402
-18 c-2 -1 -14 -10 -26 -20 -16 -14 -23 -15 -29 -6 -4 7 -3 10 3 6 6 -4 16 0
23 8 7 8 17 15 23 15 6 0 8 -1 6 -3z m-529 -41 c0 -2 -7 -7 -16 -10 -8 -3 -12
-2 -9 4 6 10 25 14 25 6z m55 -6 c-27 -12 -43 -12 -25 0 8 5 22 9 30 9 10 0 8
-3 -5 -9z m156 -23 c-10 -9 -11 -8 -5 6 3 10 9 15 12 12 3 -3 0 -11 -7 -18z
m-281 3 c0 -5 -5 -10 -11 -10 -5 0 -7 5 -4 10 3 6 8 10 11 10 2 0 4 -4 4 -10z
m597 4 c-3 -3 -12 -4 -19 -1 -8 3 -5 6 6 6 11 1 17 -2 13 -5z m-532 -14 c3 -6
-1 -7 -9 -4 -18 7 -21 14 -7 14 6 0 13 -4 16 -10z m693 -75 c-3 -3 -9 2 -12
12 -6 14 -5 15 5 6 7 -7 10 -15 7 -18z m60 -9 c14 5 14 4 3 -4 -16 -12 -53 6
-44 21 3 5 10 2 15 -6 5 -10 16 -14 26 -11z m1189 8 c-3 -3 -12 -4 -19 -1 -8
3 -5 6 6 6 11 1 17 -2 13 -5z m33 -14 c0 -5 -4 -10 -10 -10 -5 0 -10 5 -10 10
0 6 5 10 10 10 6 0 10 -4 10 -10z m-603 -32 c1 -10 -3 -18 -9 -18 -6 0 -8 3
-5 7 4 3 2 11 -3 18 -7 8 -6 12 3 12 7 0 14 -9 14 -19z m47 3 c4 -5 -3 -7 -14
-4 -23 6 -26 13 -6 13 8 0 17 -4 20 -9z m159 -7 c-2 -7 -15 -11 -28 -10 -13 0
-21 4 -19 8 3 4 -17 9 -43 11 -30 2 -21 3 23 3 51 0 70 -4 67 -12z m-1298 -4
c3 -5 1 -10 -4 -10 -6 0 -11 5 -11 10 0 6 2 10 4 10 3 0 8 -4 11 -10z m1778
-14 c9 -7 17 -17 17 -21 0 -4 -6 -2 -13 4 -8 6 -18 7 -22 3 -5 -4 -5 -2 -1 5
3 6 -1 13 -11 16 -13 3 -13 5 -3 6 8 0 23 -6 33 -13z m-459 -12 c3 -8 2 -12
-4 -9 -6 3 -10 10 -10 16 0 14 7 11 14 -7z m-99 -15 c11 -16 1 -19 -13 -3 -7
8 -8 14 -3 14 5 0 13 -5 16 -11z m125 -19 c0 -5 -7 -7 -15 -4 -8 4 -15 8 -15
10 0 2 7 4 15 4 8 0 15 -4 15 -10z m11 -23 c-10 -9 -11 -8 -5 6 3 10 9 15 12
12 3 -3 0 -11 -7 -18z m-134 7 c-3 -3 -12 -4 -19 -1 -8 3 -5 6 6 6 11 1 17 -2
13 -5z m110 -34 c-2 -23 -10 -17 -12 10 -1 10 2 17 6 14 4 -2 7 -13 6 -24z
m538 -21 c-5 -15 -4 -19 4 -15 6 4 11 5 11 2 0 -16 -21 -13 -30 5 -8 15 -9 19
-1 15 6 -4 11 -2 11 3 0 6 3 11 6 11 3 0 2 -10 -1 -21z m-2345 -9 c0 -5 -7 -7
-15 -4 -8 4 -15 8 -15 10 0 2 7 4 15 4 8 0 15 -4 15 -10z m219 -37 c-6 -7 -17
-13 -23 -12 -7 0 -6 2 2 6 6 2 10 8 8 12 -3 4 1 8 9 8 11 0 12 -4 4 -14z m-85
-1 c3 -5 -1 -9 -9 -9 -8 0 -12 4 -9 9 3 4 7 8 9 8 2 0 6 -4 9 -8z m2243 -5 c2
-3 -8 -4 -22 -4 -14 0 -25 3 -25 8 0 7 38 4 47 -4z m-232 -17 c-3 -5 -14 -10
-23 -10 -15 0 -15 2 -2 10 20 13 33 13 25 0z m-1944 -38 c-6 -10 -7 -23 -3
-27 4 -5 2 -5 -5 -1 -7 4 -10 12 -7 20 6 15 -25 18 -43 4 -7 -6 -14 -4 -19 3
-4 7 -3 9 4 5 6 -3 13 -2 17 4 3 5 15 10 26 10 10 0 19 5 19 12 0 9 3 9 11 1
8 -8 8 -17 0 -31z m-272 -15 c11 4 13 3 6 -5 -17 -18 -37 -18 -40 2 -3 13 0
15 7 8 6 -6 18 -8 27 -5z m176 -7 c-4 -6 -11 -8 -16 -5 -5 4 -9 1 -9 -4 0 -13
-37 -15 -44 -2 -4 5 3 7 14 4 11 -3 20 0 20 6 0 6 9 11 21 11 11 0 17 -5 14
-10z m136 -27 c13 -16 12 -17 -3 -4 -10 7 -18 15 -18 17 0 8 8 3 21 -13z
m1529 5 c0 -4 -4 -8 -9 -8 -6 0 -12 4 -15 8 -3 5 1 9 9 9 8 0 15 -4 15 -9z
m-1623 -34 c-3 -3 -12 -4 -19 -1 -8 3 -5 6 6 6 11 1 17 -2 13 -5z"/>
<path d="M1510 2255 c-7 -8 -10 -21 -7 -29 4 -10 1 -13 -9 -9 -10 4 -12 0 -8
-11 8 -20 20 -13 39 24 16 31 5 49 -15 25z"/>
<path d="M3145 470 c-3 -6 1 -7 9 -4 18 7 21 14 7 14 -6 0 -13 -4 -16 -10z"/>
<path d="M2546 394 c-7 -18 0 -34 16 -34 7 0 7 5 -1 14 -9 11 -9 15 1 18 8 3
9 6 1 11 -6 4 -14 0 -17 -9z"/>
</g>
</svg>
